<?xml version="1.0" encoding="UTF-8"?>
<svg id="Camada_1" xmlns="http://www.w3.org/2000/svg" version="1.1" viewBox="0 0 850.24 498.04">
  <!-- Generator: Adobe Illustrator 29.4.0, SVG Export Plug-In . SVG Version: 2.1.0 Build 152)  -->
  <defs>
    <style>
      .st0 {
        fill: #00bfb3;
      }
    </style>
  </defs>
  <path class="st0" d="M532.86,373.72c-17.96-6.28-31.83-14.56-41.63-24.86l10.92-21.47c9.55,9.55,22.23,17.27,38.05,23.16,15.82,5.9,32.14,8.85,48.97,8.85,23.61,0,41.31-4.34,53.12-13,11.8-8.66,17.71-19.9,17.71-33.72,0-10.55-3.2-18.96-9.61-25.24-6.4-6.27-14.26-11.12-23.55-14.51-9.3-3.39-22.23-7.09-38.8-11.11-19.84-5.02-35.67-9.85-47.47-14.5-11.8-4.65-21.91-11.74-30.33-21.29-8.41-9.54-12.62-22.47-12.62-38.8,0-13.31,3.51-25.43,10.55-36.35s17.83-19.65,32.4-26.18c14.56-6.53,32.64-9.8,54.25-9.8,15.07,0,29.82,2.07,44.26,6.22,14.44,4.14,26.94,9.86,37.48,17.14l-9.42,22.23c-11.06-7.28-22.86-12.75-35.41-16.39-12.56-3.64-24.86-5.46-36.92-5.46-23.11,0-40.5,4.46-52.18,13.37-11.67,8.92-17.52,20.41-17.52,34.47,0,10.55,3.21,19.03,9.61,25.43,6.4,6.41,14.44,11.3,24.11,14.69,9.66,3.39,22.66,7.1,38.99,11.12,19.34,4.77,34.97,9.48,46.9,14.13,11.93,4.65,22.04,11.67,30.33,21.09,8.29,9.42,12.43,22.17,12.43,38.24,0,13.31-3.58,25.43-10.74,36.35-7.16,10.92-18.15,19.58-32.96,25.99-14.82,6.4-33.03,9.61-54.63,9.61-19.59,0-38.37-3.14-56.32-9.42Z"/>
  <path class="st0" d="M421.54,180.27c-12.05-20.47-28.57-36.48-49.54-48.03-20.97-11.55-44.52-17.33-70.64-17.33s-49.79,5.84-71.01,17.52c-21.23,11.68-37.8,27.69-49.73,48.03-11.93,20.34-17.89,43.2-17.89,68.56s5.96,48.22,17.89,68.56c11.92,20.34,28.5,36.35,49.73,48.03,1.55.85,3.13,1.6,4.71,2.39v-30.05c-12.4-8.7-22.59-19.63-30.33-32.99-9.67-16.7-14.5-35.35-14.5-55.94s4.83-39.24,14.5-55.94c9.67-16.7,22.98-29.76,39.93-39.18,16.95-9.42,35.85-14.13,56.7-14.13s39.68,4.71,56.51,14.13c16.82,9.42,30.01,22.48,39.55,39.18,9.54,16.71,14.31,35.35,14.31,55.94s-4.77,39.24-14.31,55.94c-9.55,16.7-22.73,29.76-39.55,39.18-16.83,9.42-35.67,14.13-56.51,14.13-.13,0-.25-.01-.38-.01v24.86c.13,0,.25.01.38.01,26.12,0,49.66-5.78,70.64-17.33,20.97-11.55,37.48-27.56,49.54-48.03,12.05-20.47,18.08-43.38,18.08-68.75s-6.03-48.28-18.08-68.75Z"/>
</svg>